<svg width="86" height="25" viewBox="0 0 86 25" fill="none" xmlns="http://www.w3.org/2000/svg">
<rect width="85.6337" height="24.0514" rx="3" fill="#F24822"/>
<path d="M26.4394 18V6.36364H33.6553V7.875H28.1951V11.4205H33.1383V12.9261H28.1951V18H26.4394ZM35.5021 18V9.27273H37.2009V18H35.5021ZM36.36 7.92614C36.0646 7.92614 35.8108 7.82765 35.5987 7.63068C35.3903 7.42992 35.2862 7.19129 35.2862 6.91477C35.2862 6.63447 35.3903 6.39583 35.5987 6.19886C35.8108 5.99811 36.0646 5.89773 36.36 5.89773C36.6555 5.89773 36.9074 5.99811 37.1157 6.19886C37.3278 6.39583 37.4339 6.63447 37.4339 6.91477C37.4339 7.19129 37.3278 7.42992 37.1157 7.63068C36.9074 7.82765 36.6555 7.92614 36.36 7.92614ZM41.0093 12.8182V18H39.3104V9.27273H40.9411V10.6932H41.0491C41.2498 10.2311 41.5642 9.85985 41.9923 9.57955C42.4241 9.29924 42.9676 9.15909 43.6229 9.15909C44.2176 9.15909 44.7385 9.28409 45.1854 9.53409C45.6324 9.7803 45.979 10.1477 46.2252 10.6364C46.4714 11.125 46.5945 11.7292 46.5945 12.4489V18H44.8957V12.6534C44.8957 12.0208 44.7309 11.5265 44.4014 11.1705C44.0718 10.8106 43.6192 10.6307 43.0434 10.6307C42.6495 10.6307 42.2991 10.7159 41.9923 10.8864C41.6892 11.0568 41.4487 11.3068 41.2707 11.6364C41.0964 11.9621 41.0093 12.3561 41.0093 12.8182ZM51.2367 18.1932C50.6837 18.1932 50.1837 18.0909 49.7367 17.8864C49.2897 17.678 48.9356 17.3769 48.6742 16.983C48.4166 16.589 48.2879 16.1061 48.2879 15.5341C48.2879 15.0417 48.3826 14.6364 48.5719 14.3182C48.7613 14 49.017 13.7481 49.339 13.5625C49.661 13.3769 50.0208 13.2367 50.4185 13.142C50.8163 13.0473 51.2216 12.9754 51.6344 12.9261C52.1572 12.8655 52.5814 12.8163 52.9072 12.7784C53.2329 12.7367 53.4697 12.6705 53.6174 12.5795C53.7651 12.4886 53.839 12.3409 53.839 12.1364V12.0966C53.839 11.6004 53.6988 11.2159 53.4185 10.9432C53.142 10.6705 52.7291 10.5341 52.1799 10.5341C51.6079 10.5341 51.1572 10.661 50.8276 10.9148C50.5019 11.1648 50.2765 11.4432 50.1515 11.75L48.5549 11.3864C48.7443 10.8561 49.0208 10.428 49.3844 10.1023C49.7519 9.77273 50.1742 9.53409 50.6515 9.38636C51.1288 9.23485 51.6307 9.15909 52.1572 9.15909C52.5057 9.15909 52.875 9.20076 53.2651 9.28409C53.6591 9.36364 54.0265 9.51136 54.3674 9.72727C54.7121 9.94318 54.9943 10.2519 55.214 10.6534C55.4337 11.0511 55.5435 11.5682 55.5435 12.2045V18H53.8844V16.8068H53.8163C53.7064 17.0265 53.5416 17.2424 53.3219 17.4545C53.1022 17.6667 52.8201 17.8428 52.4754 17.983C52.1307 18.1231 51.7178 18.1932 51.2367 18.1932ZM51.606 16.8295C52.0757 16.8295 52.4772 16.7367 52.8106 16.5511C53.1477 16.3655 53.4034 16.1231 53.5776 15.8239C53.7557 15.5208 53.8447 15.197 53.8447 14.8523V13.7273C53.7841 13.7879 53.6666 13.8447 53.4924 13.8977C53.3219 13.947 53.1269 13.9905 52.9072 14.0284C52.6875 14.0625 52.4735 14.0947 52.2651 14.125C52.0568 14.1515 51.8826 14.1742 51.7424 14.1932C51.4129 14.2348 51.1117 14.3049 50.839 14.4034C50.5701 14.5019 50.3541 14.6439 50.1913 14.8295C50.0322 15.0114 49.9526 15.2538 49.9526 15.5568C49.9526 15.9773 50.1079 16.2955 50.4185 16.5114C50.7291 16.7235 51.125 16.8295 51.606 16.8295ZM59.3292 6.36364V18H57.6303V6.36364H59.3292Z" fill="white"/>
</svg>
