<svg width="86" height="25" viewBox="0 0 86 25" fill="none" xmlns="http://www.w3.org/2000/svg">
<rect width="85.6337" height="24.0514" rx="3" fill="#14AE5C"/>
<path d="M10.0336 18V6.36364H11.7893V11.4205H17.5904V6.36364H19.3518V18H17.5904V12.9261H11.7893V18H10.0336ZM24.136 18.1932C23.583 18.1932 23.083 18.0909 22.636 17.8864C22.1891 17.678 21.8349 17.3769 21.5735 16.983C21.316 16.589 21.1872 16.1061 21.1872 15.5341C21.1872 15.0417 21.2819 14.6364 21.4713 14.3182C21.6607 14 21.9163 13.7481 22.2383 13.5625C22.5603 13.3769 22.9201 13.2367 23.3178 13.142C23.7156 13.0473 24.1209 12.9754 24.5338 12.9261C25.0565 12.8655 25.4807 12.8163 25.8065 12.7784C26.1322 12.7367 26.369 12.6705 26.5167 12.5795C26.6644 12.4886 26.7383 12.3409 26.7383 12.1364V12.0966C26.7383 11.6004 26.5982 11.2159 26.3178 10.9432C26.0413 10.6705 25.6285 10.5341 25.0792 10.5341C24.5072 10.5341 24.0565 10.661 23.7269 10.9148C23.4012 11.1648 23.1758 11.4432 23.0508 11.75L21.4542 11.3864C21.6436 10.8561 21.9201 10.428 22.2838 10.1023C22.6512 9.77273 23.0735 9.53409 23.5508 9.38636C24.0281 9.23485 24.53 9.15909 25.0565 9.15909C25.405 9.15909 25.7743 9.20076 26.1644 9.28409C26.5584 9.36364 26.9258 9.51136 27.2667 9.72727C27.6114 9.94318 27.8936 10.2519 28.1133 10.6534C28.333 11.0511 28.4428 11.5682 28.4428 12.2045V18H26.7838V16.8068H26.7156C26.6057 17.0265 26.441 17.2424 26.2213 17.4545C26.0016 17.6667 25.7194 17.8428 25.3747 17.983C25.03 18.1231 24.6171 18.1932 24.136 18.1932ZM24.5053 16.8295C24.975 16.8295 25.3766 16.7367 25.7099 16.5511C26.047 16.3655 26.3027 16.1231 26.4769 15.8239C26.655 15.5208 26.744 15.197 26.744 14.8523V13.7273C26.6834 13.7879 26.566 13.8447 26.3917 13.8977C26.2213 13.947 26.0262 13.9905 25.8065 14.0284C25.5868 14.0625 25.3728 14.0947 25.1644 14.125C24.9561 14.1515 24.7819 14.1742 24.6417 14.1932C24.3122 14.2348 24.011 14.3049 23.7383 14.4034C23.4694 14.5019 23.2535 14.6439 23.0906 14.8295C22.9315 15.0114 22.8519 15.2538 22.8519 15.5568C22.8519 15.9773 23.0072 16.2955 23.3178 16.5114C23.6285 16.7235 24.0243 16.8295 24.5053 16.8295ZM32.2285 6.36364V18H30.5296V6.36364H32.2285ZM38.4914 9.27273V10.6364H33.5596V9.27273H38.4914ZM34.9119 18V8.26136C34.9119 7.71591 35.0312 7.26326 35.2698 6.90341C35.5085 6.53977 35.8247 6.26894 36.2187 6.09091C36.6126 5.90909 37.0407 5.81818 37.5028 5.81818C37.8437 5.81818 38.1354 5.84659 38.3778 5.90341C38.6202 5.95644 38.8001 6.00568 38.9176 6.05114L38.5198 7.42614C38.4403 7.40341 38.338 7.37689 38.213 7.34659C38.088 7.3125 37.9365 7.29545 37.7585 7.29545C37.3456 7.29545 37.0501 7.39773 36.8721 7.60227C36.6979 7.80682 36.6107 8.10227 36.6107 8.48864V18H34.9119ZM43.3653 6.36364H45.3596L48.3994 11.6534H48.5244L51.5641 6.36364H53.5584L49.3369 13.4318V18H47.5869V13.4318L43.3653 6.36364ZM57.2276 18.1761C56.3678 18.1761 55.6272 17.9924 55.006 17.625C54.3886 17.2538 53.9113 16.733 53.5742 16.0625C53.2409 15.3883 53.0742 14.5985 53.0742 13.6932C53.0742 12.7992 53.2409 12.0114 53.5742 11.3295C53.9113 10.6477 54.381 10.1155 54.9833 9.73295C55.5894 9.35038 56.2977 9.15909 57.1083 9.15909C57.6007 9.15909 58.078 9.24053 58.5401 9.40341C59.0022 9.56629 59.417 9.82197 59.7844 10.1705C60.1519 10.5189 60.4416 10.9716 60.6538 11.5284C60.8659 12.0814 60.9719 12.7538 60.9719 13.5455V14.1477H54.0344V12.875H59.3072C59.3072 12.428 59.2163 12.0322 59.0344 11.6875C58.8526 11.339 58.5969 11.0644 58.2674 10.8636C57.9416 10.6629 57.5591 10.5625 57.1197 10.5625C56.6424 10.5625 56.2257 10.6799 55.8697 10.9148C55.5174 11.1458 55.2447 11.4489 55.0515 11.8239C54.8621 12.1951 54.7674 12.5985 54.7674 13.0341V14.0284C54.7674 14.6117 54.8697 15.108 55.0742 15.517C55.2825 15.9261 55.5723 16.2386 55.9435 16.4545C56.3147 16.6667 56.7485 16.7727 57.2447 16.7727C57.5666 16.7727 57.8602 16.7273 58.1253 16.6364C58.3905 16.5417 58.6197 16.4015 58.8128 16.2159C59.006 16.0303 59.1538 15.8011 59.256 15.5284L60.864 15.8182C60.7352 16.2917 60.5041 16.7064 60.1708 17.0625C59.8413 17.4148 59.4265 17.6894 58.9265 17.8864C58.4303 18.0795 57.864 18.1761 57.2276 18.1761ZM63.8172 18.108C63.5066 18.108 63.2396 17.9981 63.0161 17.7784C62.7926 17.5549 62.6809 17.286 62.6809 16.9716C62.6809 16.661 62.7926 16.3958 63.0161 16.1761C63.2396 15.9527 63.5066 15.8409 63.8172 15.8409C64.1279 15.8409 64.3949 15.9527 64.6184 16.1761C64.8419 16.3958 64.9536 16.661 64.9536 16.9716C64.9536 17.1799 64.9006 17.3712 64.7945 17.5455C64.6922 17.7159 64.5559 17.8523 64.3854 17.9545C64.215 18.0568 64.0256 18.108 63.8172 18.108ZM68.0616 18.108C67.751 18.108 67.4839 17.9981 67.2604 17.7784C67.0369 17.5549 66.9252 17.286 66.9252 16.9716C66.9252 16.661 67.0369 16.3958 67.2604 16.1761C67.4839 15.9527 67.751 15.8409 68.0616 15.8409C68.3722 15.8409 68.6392 15.9527 68.8627 16.1761C69.0862 16.3958 69.1979 16.661 69.1979 16.9716C69.1979 17.1799 69.1449 17.3712 69.0388 17.5455C68.9366 17.7159 68.8002 17.8523 68.6297 17.9545C68.4593 18.0568 68.2699 18.108 68.0616 18.108ZM72.3116 18.108C72.001 18.108 71.7339 17.9981 71.5104 17.7784C71.2869 17.5549 71.1752 17.286 71.1752 16.9716C71.1752 16.661 71.2869 16.3958 71.5104 16.1761C71.7339 15.9527 72.001 15.8409 72.3116 15.8409C72.6222 15.8409 72.8892 15.9527 73.1127 16.1761C73.3362 16.3958 73.4479 16.661 73.4479 16.9716C73.4479 17.1799 73.3949 17.3712 73.2888 17.5455C73.1866 17.7159 73.0502 17.8523 72.8797 17.9545C72.7093 18.0568 72.5199 18.108 72.3116 18.108Z" fill="white"/>
</svg>
